HIERARCHY
ROOT Hips
{
    OFFSET 0.000000 0.000000 0.000000
    CHANNELS 6 Xposition Yposition Zposition Zrotation Xrotation Yrotation
    JOINT Spine
    {
        OFFSET 0.000002 7.164412 0.000002
        CHANNELS 3 Zrotation Xrotation Yrotation
        JOINT Spine1
        {
            OFFSET -0.000001 20.126801 -0.000002
            CHANNELS 3 Zrotation Xrotation Yrotation
            JOINT Neck
            {
                OFFSET 0.000000 21.094069 0.000000
                CHANNELS 3 Zrotation Xrotation Yrotation
                JOINT Head
                {
                    OFFSET -0.000001 12.838277 1.776080
                    CHANNELS 3 Zrotation Xrotation Yrotation
                    End Site
                    {
                        OFFSET 0.000000 17.760757 0.000000
                    }
                }
            }
            JOINT LeftShoulder
            {
                OFFSET 3.550527 15.465700 -0.908803
                CHANNELS 3 Zrotation Xrotation Yrotation
                JOINT LeftArm
                {
                    OFFSET 12.513296 -0.000006 -0.000002
                    CHANNELS 3 Zrotation Xrotation Yrotation
                    JOINT LeftForeArm
                    {
                        OFFSET 24.225996 -0.000003 0.000001
                        CHANNELS 3 Zrotation Xrotation Yrotation
                        JOINT LeftHand
                        {
                            OFFSET 20.711399 -0.000005 -0.000004
                            CHANNELS 3 Zrotation Xrotation Yrotation
                            JOINT LeftHandThumb1
                            {
                                OFFSET 2.121969 -2.411331 3.375859
                                CHANNELS 3 Zrotation Xrotation Yrotation
                                JOINT LeftHandThumb2
                                {
                                    OFFSET 2.803208 0.000003 0.000001
                                    CHANNELS 3 Zrotation Xrotation Yrotation
                                    JOINT LeftHandThumb3
                                    {
                                        OFFSET 2.395929 0.000004 -0.000003
                                        CHANNELS 3 Zrotation Xrotation Yrotation
                                        End Site
                                        {
                                            OFFSET 2.127676 0.000000 0.000000
                                        }
                                    }
                                }
                            }
                            JOINT LeftHandIndex1
                            {
                                OFFSET 8.680775 0.000005 3.375860
                                CHANNELS 3 Zrotation Xrotation Yrotation
                                JOINT LeftHandIndex2
                                {
                                    OFFSET 4.218178 -0.000000 -0.000000
                                    CHANNELS 3 Zrotation Xrotation Yrotation
                                    JOINT LeftHandIndex3
                                    {
                                        OFFSET 2.109086 -0.000004 0.000002
                                        CHANNELS 3 Zrotation Xrotation Yrotation
                                        End Site
                                        {
                                            OFFSET 1.872952 0.000000 0.000000
                                        }
                                    }
                                }
                            }
                            JOINT LeftHandMiddle1
                            {
                                OFFSET 8.680778 -0.000002 1.118860
                                CHANNELS 3 Zrotation Xrotation Yrotation
                                JOINT LeftHandMiddle2
                                {
                                    OFFSET 4.640003 -0.000004 -0.000001
                                    CHANNELS 3 Zrotation Xrotation Yrotation
                                    JOINT LeftHandMiddle3
                                    {
                                        OFFSET 2.530911 0.000002 -0.000001
                                        CHANNELS 3 Zrotation Xrotation Yrotation
                                        End Site
                                        {
                                            OFFSET 2.247544 0.000000 0.000000
                                        }
                                    }
                                }
                            }
                            JOINT LeftHandRing1
                            {
                                OFFSET 8.198517 0.000004 -1.118860
                                CHANNELS 3 Zrotation Xrotation Yrotation
                                JOINT LeftHandRing2
                                {
                                    OFFSET 4.218183 -0.000002 -0.000002
                                    CHANNELS 3 Zrotation Xrotation Yrotation
                                    JOINT LeftHandRing3
                                    {
                                        OFFSET 2.109094 0.000005 -0.000000
                                        CHANNELS 3 Zrotation Xrotation Yrotation
                                        End Site
                                        {
                                            OFFSET 1.872952 0.000000 0.000000
                                        }
                                    }
                                }
                            }
                            JOINT LeftHandPinky1
                            {
                                OFFSET 7.716254 0.000002 -3.375863
                                CHANNELS 3 Zrotation Xrotation Yrotation
                                JOINT LeftHandPinky2
                                {
                                    OFFSET 3.374536 0.000002 0.000001
                                    CHANNELS 3 Zrotation Xrotation Yrotation
                                    JOINT LeftHandPinky3
                                    {
                                        OFFSET 1.687274 -0.000002 -0.000004
                                        CHANNELS 3 Zrotation Xrotation Yrotation
                                        End Site
                                        {
                                            OFFSET 1.498360 0.000000 0.000000
                                        }
                                    }
                                }
                            }
                        }
                    }
                }
            }
            JOINT RightShoulder
            {
                OFFSET -3.550529 15.465699 -0.908801
                CHANNELS 3 Zrotation Xrotation Yrotation
                JOINT RightArm
                {
                    OFFSET -12.513299 -0.000001 -0.000000
                    CHANNELS 3 Zrotation Xrotation Yrotation
                    JOINT RightForeArm
                    {
                        OFFSET -24.226000 -0.000003 -0.000001
                        CHANNELS 3 Zrotation Xrotation Yrotation
                        JOINT RightHand
                        {
                            OFFSET -20.711397 -0.000003 -0.000002
                            CHANNELS 3 Zrotation Xrotation Yrotation
                            JOINT RightHandThumb1
                            {
                                OFFSET -2.121970 -2.411331 3.375859
                                CHANNELS 3 Zrotation Xrotation Yrotation
                                JOINT RightHandThumb2
                                {
                                    OFFSET -2.803209 -0.000004 0.000004
                                    CHANNELS 3 Zrotation Xrotation Yrotation
                                    JOINT RightHandThumb3
                                    {
                                        OFFSET -2.395928 0.000004 -0.000003
                                        CHANNELS 3 Zrotation Xrotation Yrotation
                                        End Site
                                        {
                                            OFFSET -2.127676 0.000000 0.000000
                                        }
                                    }
                                }
                            }
                            JOINT RightHandIndex1
                            {
                                OFFSET -8.680779 0.000001 3.375859
                                CHANNELS 3 Zrotation Xrotation Yrotation
                                JOINT RightHandIndex2
                                {
                                    OFFSET -4.218179 0.000003 -0.000001
                                    CHANNELS 3 Zrotation Xrotation Yrotation
                                    JOINT RightHandIndex3
                                    {
                                        OFFSET -2.109090 -0.000002 0.000000
                                        CHANNELS 3 Zrotation Xrotation Yrotation
                                        End Site
                                        {
                                            OFFSET -1.872952 0.000000 0.000000
                                        }
                                    }
                                }
                            }
                            JOINT RightHandMiddle1
                            {
                                OFFSET -8.680779 -0.000002 1.118859
                                CHANNELS 3 Zrotation Xrotation Yrotation
                                JOINT RightHandMiddle2
                                {
                                    OFFSET -4.639998 0.000003 -0.000001
                                    CHANNELS 3 Zrotation Xrotation Yrotation
                                    JOINT RightHandMiddle3
                                    {
                                        OFFSET -2.530910 -0.000000 -0.000000
                                        CHANNELS 3 Zrotation Xrotation Yrotation
                                        End Site
                                        {
                                            OFFSET -2.247544 0.000000 0.000000
                                        }
                                    }
                                }
                            }
                            JOINT RightHandRing1
                            {
                                OFFSET -8.198519 -0.000004 -1.118859
                                CHANNELS 3 Zrotation Xrotation Yrotation
                                JOINT RightHandRing2
                                {
                                    OFFSET -4.218180 -0.000005 0.000000
                                    CHANNELS 3 Zrotation Xrotation Yrotation
                                    JOINT RightHandRing3
                                    {
                                        OFFSET -2.109090 0.000002 0.000002
                                        CHANNELS 3 Zrotation Xrotation Yrotation
                                        End Site
                                        {
                                            OFFSET -1.872952 0.000000 0.000000
                                        }
                                    }
                                }
                            }
                            JOINT RightHandPinky1
                            {
                                OFFSET -7.716249 0.000004 -3.375858
                                CHANNELS 3 Zrotation Xrotation Yrotation
                                JOINT RightHandPinky2
                                {
                                    OFFSET -3.374539 0.000003 -0.000000
                                    CHANNELS 3 Zrotation Xrotation Yrotation
                                    JOINT RightHandPinky3
                                    {
                                        OFFSET -1.687270 -0.000004 -0.000001
                                        CHANNELS 3 Zrotation Xrotation Yrotation
                                        End Site
                                        {
                                            OFFSET -1.498360 0.000000 0.000000
                                        }
                                    }
                                }
                            }
                        }
                    }
                }
            }
        }
    }
    JOINT LeftUpLeg
    {
        OFFSET 8.880377 0.000003 0.000001
        CHANNELS 3 Zrotation Xrotation Yrotation
        JOINT LeftLeg
        {
            OFFSET -0.000000 -40.387413 0.000001
            CHANNELS 3 Zrotation Xrotation Yrotation
            JOINT LeftFoot
            {
                OFFSET -0.000000 -36.911304 0.000000
                CHANNELS 3 Zrotation Xrotation Yrotation
                JOINT LeftToeBase
                {
                    OFFSET 0.000003 -5.772240 13.320597
                    CHANNELS 3 Zrotation Xrotation Yrotation
                    End Site
                    {
                        OFFSET 0.000000 0.000000 3.552151
                    }
                }
            }
        }
    }
    JOINT RightUpLeg
    {
        OFFSET -8.880380 -0.000003 -0.000001
        CHANNELS 3 Zrotation Xrotation Yrotation
        JOINT RightLeg
        {
            OFFSET 0.000001 -40.387405 0.000000
            CHANNELS 3 Zrotation Xrotation Yrotation
            JOINT RightFoot
            {
                OFFSET -0.000001 -36.911304 -0.000001
                CHANNELS 3 Zrotation Xrotation Yrotation
                JOINT RightToeBase
                {
                    OFFSET 0.000000 -5.772241 13.320600
                    CHANNELS 3 Zrotation Xrotation Yrotation
                    End Site
                    {
                        OFFSET 0.000000 0.000000 3.552151
                    }
                }
            }
        }
    }
}
MOTION
Frames: 4
Frame Time: 0.013889
125.396416    82.510498    40.417313    -5.295874    0.543860    45.550270    -1.794149    -25.823828    -4.113015    -0.307445    13.113952    -3.535969    4.799321    -3.246933    -3.702449    2.496685    3.109869    -4.098954    -0.871531    -0.081130    -3.542727    -21.357315    28.891523    -33.734314    -6.827212    -10.029876    -34.505909    -23.170578    10.468434    5.111406    32.880104    33.022968    -44.609127    -13.035524    -0.486005    23.312693    -0.000000    0.000000    -0.000000    -12.947832    17.570787    -5.280106    -12.333982    0.000001    0.000006    -12.334000    0.000002    -0.000006    -10.298120    8.857333    -3.022666    -10.174011    0.000004    -0.000004    -10.173995    0.000001    0.000003    -9.205435    -8.885957    -3.482015    -9.094007    0.000000    -0.000004    -9.094005    0.000002    0.000002    -8.420671    -17.818239    -6.689672    -8.014007    -0.000000    0.000003    -8.014022    0.000002    -0.000002    -1.236012    1.553832    3.911344    49.570339    20.380169    6.223987    1.380431    -10.203948    7.746287    32.123871    0.792351    -19.767485    -39.137455    27.426191    47.617947    15.111568    -1.379884    -23.278891    -0.000000    0.000000    -0.000000    13.951575    17.501810    6.603315    13.293587    -0.000001    -0.000007    13.293579    -0.000001    0.000007    10.538421    8.850622    3.798515    10.411534    -0.000002    0.000000    10.411530    0.000008    -0.000004    9.080476    -8.889025    0.375074    8.970503    -0.000004    -0.000005    8.970513    -0.000002    0.000000    7.912177    -17.839512    0.358694    7.529488    0.000004    0.000001    7.529487    -0.000002    0.000000    15.195849    3.408795    18.408419    -0.000012    48.444172    0.000017    0.208703    28.735508    -6.842450    -0.000000    3.467106    0.000003    12.160854    -4.011637    -25.964128    -0.000001    5.655515    -0.000003    3.326259    -8.528911    -11.280684    -0.000000    2.850005    -0.000000    
125.432053    82.471802    40.719440    -5.200397    0.432791    45.039177    -1.537732    -25.645321    -3.549299    -0.453648    13.114534    -3.013462    4.512128    -3.174180    -4.057111    2.609571    3.070297    -4.436743    -1.006241    -0.262238    -3.296835    -22.511171    27.175957    -32.428120    -6.515625    -9.621349    -34.346573    -22.989311    10.704880    5.119016    32.897083    33.018986    -44.531921    -13.143734    -0.532624    23.311729    -0.000000    0.000000    -0.000000    -13.028856    17.565409    -5.283742    -12.411436    0.000002    -0.000002    -12.411433    0.000000    -0.000003    -10.383824    8.854963    -3.023526    -10.258718    -0.000003    -0.000005    -10.258711    -0.000003    -0.000000    -9.294827    -8.883735    -3.455489    -9.182360    0.000002    -0.000005    -9.182352    0.000002    -0.000001    -8.517166    -17.814054    -6.638515    -8.106004    -0.000002    -0.000002    -8.105989    0.000004    -0.000002    -1.247465    1.556351    4.137859    48.790031    20.725071    7.335874    1.400648    -10.484125    7.653124    31.274727    0.832349    -19.968002    -39.165581    27.375544    47.701340    15.109262    -1.378894    -23.278940    -0.000000    0.000000    -0.000000    13.982020    17.499641    6.543888    13.322681    -0.000001    0.000010    13.322682    0.000004    -0.000011    10.586440    8.849253    3.765986    10.459020    0.000004    0.000006    10.458995    -0.000005    -0.000003    9.137807    -8.887623    0.352917    9.027175    0.000000    -0.000000    9.027175    -0.000002    0.000002    7.981277    -17.836695    0.317852    7.595338    0.000000    -0.000000    7.595331    -0.000004    0.000000    15.748668    2.201079    18.249182    0.000012    50.750370    -0.000021    -0.005588    27.987623    -7.676492    0.000007    3.893574    -0.000005    12.278073    -3.723894    -25.972454    -0.000000    5.863031    -0.000001    3.288908    -8.750817    -10.831076    0.000002    2.835684    0.000001    
125.471619    82.414803    41.103676    -5.054451    0.244392    44.362919    -1.196205    -25.350035    -2.792104    -0.648330    13.143213    -2.310055    4.156605    -3.110448    -4.522405    2.775123    2.949876    -4.882603    -1.193568    -0.498872    -2.968649    -24.077808    24.729849    -30.761215    -6.134265    -9.093418    -34.216610    -22.633793    10.966614    5.150188    32.903027    33.027512    -44.419468    -13.300843    -0.600318    23.310171    -0.000000    0.000000    -0.000000    -12.916260    17.572874    -5.459054    -12.303805    -0.000001    0.000008    -12.303816    0.000006    -0.000005    -10.405208    8.854364    -3.090893    -10.279852    -0.000004    0.000002    -10.279853    0.000005    0.000001    -9.381354    -8.881561    -3.414220    -9.267876    -0.000002    -0.000001    -9.267865    0.000002    0.000001    -8.674443    -17.807125    -6.577363    -8.255893    -0.000004    0.000002    -8.255894    0.000002    -0.000003    -1.248556    1.542907    4.432448    47.773808    21.088734    8.783055    1.444417    -10.995394    7.531034    29.860699    0.955260    -20.100271    -39.183033    27.347401    47.742908    15.121588    -1.384203    -23.278641    -0.000000    0.000000    -0.000000    14.052201    17.494623    6.510117    13.389809    0.000002    0.000003    13.389804    0.000003    -0.000004    10.665321    8.847007    3.747518    10.536973    0.000005    0.000003    10.536976    -0.000001    0.000004    9.222175    -8.885545    0.315304    9.110548    -0.000002    0.000002    9.110558    -0.000003    0.000002    8.074480    -17.832867    0.245088    7.684142    0.000004    0.000001    7.684136    -0.000001    0.000000    16.486122    0.464175    17.933990    -0.000002    53.872829    0.000011    -0.911039    26.870592    -8.133147    0.000003    3.653717    0.000002    12.475898    -3.272323    -25.974785    -0.000001    6.035802    -0.000001    3.140113    -8.923922    -10.263307    -0.000001    2.883343    -0.000001    
125.502502    82.370743    41.377529    -4.918205    0.067736    43.919350    -0.943356    -25.082590    -2.224379    -0.787014    13.170669    -1.782622    3.859705    -3.074364    -4.908581    2.883781    2.865127    -5.253262    -1.340714    -0.641594    -2.739600    -25.280119    22.801918    -29.568428    -5.842058    -8.669970    -34.167023    -22.221813    11.232282    5.275611    33.025105    32.928596    -44.472992    -13.347248    -0.620308    23.309669    -0.000000    0.000000    -0.000000    -12.688385    17.587782    -5.704649    -12.086075    0.000003    0.000002    -12.086088    0.000001    -0.000007    -10.354180    8.855784    -3.187129    -10.229414    0.000002    0.000000    -10.229426    0.000000    -0.000003    -9.414955    -8.880715    -3.381244    -9.301085    -0.000000    0.000002    -9.301087    0.000002    -0.000002    -8.797040    -17.801641    -6.538529    -8.372750    0.000005    -0.000004    -8.372765    -0.000007    -0.000000    -1.233528    1.539469    4.670279    47.018719    21.315992    9.842552    1.470992    -11.419217    7.390119    28.590895    0.965952    -20.300587    -39.205399    27.336370    47.720577    15.130089    -1.387856    -23.278439    -0.000000    0.000000    -0.000000    14.138466    17.488419    6.469280    13.472310    -0.000003    0.000004    13.472322    0.000006    -0.000004    10.748499    8.844620    3.727271    10.619191    0.000002    0.000003    10.619187    -0.000002    -0.000003    9.305228    -8.883472    0.287762    9.192632    -0.000004    -0.000001    9.192640    0.000002    0.000005    8.160476    -17.829288    0.190685    7.766067    0.000000    0.000002    7.766068    -0.000004    -0.000001    17.005747    -0.966236    17.507635    -0.000013    56.288166    0.000017    -1.747786    26.068134    -8.061051    -0.000004    3.282923    0.000004    12.618854    -2.894801    -25.946018    -0.000001    6.122276    -0.000004    3.039906    -9.062660    -9.926027    -0.000001    2.891678    -0.000001    
